<svg width="69" height="69" viewBox="0 0 69 69" fill="none" xmlns="http://www.w3.org/2000/svg">
<path fill-rule="evenodd" clip-rule="evenodd" d="M34.5 69C53.5538 69 69 53.5538 69 34.5C69 15.4462 53.5538 0 34.5 0C15.4462 0 0 15.4462 0 34.5C0 53.5538 15.4462 69 34.5 69Z" fill="#FEDC5A" fill-opacity="0.1"/>
<path d="M30.9999 35.3334C30.1199 35.7734 29.3865 36.4267 28.8399 37.24C28.5332 37.7067 28.5332 38.2934 28.8399 38.76C29.3865 39.5734 30.1199 40.2267 30.9999 40.6667" stroke="#FEDC5A" stroke-width="2" stroke-linecap="round" stroke-linejoin="round"/>
<path d="M39.28 35.3334C40.16 35.7734 40.8934 36.4267 41.44 37.24C41.7467 37.7067 41.7467 38.2934 41.44 38.76C40.8934 39.5734 40.16 40.2267 39.28 40.6667" stroke="#FEDC5A" stroke-width="2" stroke-linecap="round" stroke-linejoin="round"/>
<path d="M31.0001 47.3333H39.0001C45.6667 47.3333 48.3334 44.6666 48.3334 38V30C48.3334 23.3333 45.6667 20.6666 39.0001 20.6666H31.0001C24.3334 20.6666 21.6667 23.3333 21.6667 30V38C21.6667 44.6666 24.3334 47.3333 31.0001 47.3333Z" stroke="#FEDC5A" stroke-width="2" stroke-linecap="round" stroke-linejoin="round"/>
<path d="M21.9734 28.68L47.6001 28.6666" stroke="#FEDC5A" stroke-width="2" stroke-linecap="round" stroke-linejoin="round"/>
</svg>
