<svg width="26" height="26" viewBox="0 0 26 26" fill="none" xmlns="http://www.w3.org/2000/svg">
<path d="M5.70207 1.0526C6.52687 0.548789 7.60392 0.809 8.10773 1.6338L13.5811 10.5944L22.5417 5.12098C23.3665 4.61717 24.4436 4.87738 24.9474 5.70218C25.4512 6.52698 25.191 7.60403 24.3662 8.10784L15.4056 13.5812L20.879 22.5418C21.3828 23.3666 21.1226 24.4437 20.2978 24.9475C19.473 25.4513 18.396 25.1911 17.8921 24.3663L12.4187 15.4057L3.45817 20.8791C2.63337 21.3829 1.55632 21.1227 1.05251 20.2979C0.548693 19.4731 0.808904 18.3961 1.6337 17.8922L10.5943 12.4188L5.12088 3.45826C4.61706 2.63347 4.87727 1.55641 5.70207 1.0526Z" fill="#E7E7E7"/>
</svg>
